<?xml version="1.0" encoding="UTF-8"?>
<svg id="katman_2" xmlns="http://www.w3.org/2000/svg" viewBox="0 0 296.29 72.59">
  <defs>
    <style>
      .cls-1 {
        fill: #fff;
      }

      .cls-2 {
        fill: #092657;
      }

      .cls-3 {
        fill: #d1050c;
      }
    </style>
  </defs>
  <g id="Layer_1">
    <polygon class="cls-1" points="189.87 .07 189.87 4.21 189.87 13.24 189.87 17.38 189.87 26.41 189.87 30.55 194.01 30.55 206.91 30.55 206.91 26.41 194.01 26.41 194.01 17.38 206.91 17.38 206.91 13.24 194.01 13.24 194.01 4.21 206.91 4.21 206.91 .07 194.01 .07 189.87 .07"/>
    <polygon class="cls-1" points="138.45 .07 138.45 4.21 138.45 13.24 138.45 17.38 138.45 26.41 138.45 30.55 142.59 30.55 155.49 30.55 155.49 26.41 142.59 26.41 142.59 17.38 155.49 17.38 155.49 13.24 142.59 13.24 142.59 4.21 155.49 4.21 155.49 .07 142.59 .07 138.45 .07"/>
    <path class="cls-1" d="M167.73,30.59c3.61,0,6.27-.22,7.97-.66,1.71-.44,3.23-1.18,4.57-2.2,1.77-1.37,3.11-3.1,4.02-5.2.91-2.1,1.37-4.5,1.37-7.22s-.46-5.13-1.37-7.25c-.91-2.12-2.25-3.85-4.02-5.21-1.34-1.03-2.9-1.76-4.67-2.2C173.82.22,170.75,0,166.39,0h-6.7v30.59h8.04ZM164.66,4.45h3.59c2.57,0,4.46.15,5.66.46,1.21.31,2.24.83,3.1,1.55,1.16.99,2.03,2.22,2.6,3.69.58,1.47.87,3.17.87,5.13s-.29,3.66-.87,5.13c-.58,1.48-1.45,2.7-2.6,3.69-.85.72-1.85,1.24-3,1.55-1.15.31-2.87.46-5.17.46h-4.19V4.45Z"/>
    <path class="cls-1" d="M184.57,42l-6.57,10.26c-.24.36-.46.76-.68,1.19-.21.43-.42.89-.62,1.38-.24-.5-.46-.97-.69-1.4-.24-.43-.42-.78-.58-1.05l-6.42-10.38h-5.23l10.31,16.59v14h4.92v-14l10.52-16.59h-4.97Z"/>
    <path class="cls-1" d="M128.85,2.86c-1.34-1.03-2.89-1.76-4.67-2.2C122.4.22,119.33,0,114.97,0h-6.7v30.59h8.04c3.61,0,6.27-.22,7.97-.66,1.71-.44,3.23-1.18,4.57-2.2,1.77-1.37,3.11-3.1,4.02-5.2.91-2.1,1.37-4.5,1.37-7.22s-.46-5.13-1.37-7.25c-.91-2.12-2.25-3.85-4.02-5.21ZM128.19,20.4c-.58,1.48-1.45,2.7-2.6,3.69-.85.72-1.85,1.24-3,1.55-1.15.31-2.87.46-5.17.46h-4.19V4.45h3.59c2.57,0,4.46.15,5.66.46,1.21.31,2.24.83,3.1,1.55,1.16.99,2.03,2.22,2.6,3.69.58,1.47.87,3.17.87,5.13s-.29,3.66-.87,5.13Z"/>
    <path class="cls-1" d="M223.01,12.91c-.16-.06-.36-.16-.63-.28-3.46-1.51-5.19-3.14-5.19-4.89,0-1.11.39-2,1.18-2.66.78-.67,1.85-1,3.19-1,.95,0,1.79.21,2.52.64.73.42,1.4,1.09,2.02,2.01l3.88-1.91c-.58-1.55-1.63-2.74-3.15-3.56C225.32.41,223.43,0,221.18,0c-2.75,0-4.97.73-6.66,2.21-1.69,1.47-2.54,3.39-2.54,5.77,0,1.83.56,3.37,1.68,4.64,1.12,1.27,3.37,2.68,6.74,4.25.22.09.54.24.96.43,2.99,1.34,4.48,2.86,4.48,4.58,0,1.31-.43,2.36-1.3,3.14-.88.78-2.05,1.17-3.53,1.17-1.56,0-2.85-.34-3.84-1.03-1.01-.68-1.7-1.67-2.07-2.97l-3.96,1.74c.51,2.12,1.6,3.75,3.27,4.89,1.67,1.14,3.8,1.71,6.4,1.71,3.11,0,5.58-.81,7.4-2.44,1.83-1.62,2.74-3.82,2.74-6.57,0-1.89-.56-3.48-1.69-4.75-1.13-1.26-3.2-2.56-6.23-3.89Z"/>
    <rect class="cls-1" x="239.61" y="42" width="4.96" height="30.59"/>
    <polygon class="cls-1" points="206.76 42 206.76 55.63 201.79 44.96 201.79 42 206.76 42"/>
    <rect class="cls-3" x="195.89" y="63.01" width="4.96" height="9.58"/>
    <path class="cls-1" d="M232.33,43.57c-.78-.56-1.7-.96-2.75-1.21-1.06-.24-2.7-.36-4.93-.36h-7.52v30.59h4.66v-13.73h2.85c2.23,0,3.87-.12,4.93-.36,1.05-.24,1.97-.63,2.75-1.19.96-.69,1.71-1.65,2.26-2.88.54-1.23.81-2.56.81-4.01s-.27-2.77-.81-3.98c-.55-1.2-1.3-2.16-2.26-2.87ZM228.9,53.89c-.92.6-2.76.9-5.52.9h-1.28v-8.51h1.28c2.63,0,4.44.34,5.42,1,.98.67,1.48,1.82,1.48,3.44,0,1.52-.46,2.57-1.38,3.17Z"/>
    <path class="cls-1" d="M183.32,72.59h5.22c.08-.17,9.53-20.83,9.63-21.26.19.69,9.09,20.31,9.51,21.26h5.25l-14.8-30.59-14.81,30.59Z"/>
    <g>
      <polygon class="cls-2" points="83.55 19.95 75.28 32.33 42.15 32.33 39.27 36.65 37.16 39.82 31.84 47.77 26.54 39.82 25.54 38.32 29.53 32.33 32.97 27.2 37.81 19.95 83.55 19.95"/>
      <polygon class="cls-1" points="70.29 39.82 55.84 61.45 55.84 61.46 48.42 72.59 40.93 61.38 36.75 55.11 44.17 43.98 48.36 50.26 55.33 39.82 70.29 39.82"/>
      <polygon class="cls-2" points="96.82 .07 88.55 12.46 42.8 12.46 51.08 .07 96.82 .07"/>
      <polygon class="cls-1" points="32.99 12.46 23.13 12.46 28.07 19.85 28 19.95 20.64 30.97 13.27 19.95 8.28 12.46 0 .07 41.27 .07 32.99 12.46"/>
    </g>
    <polygon class="cls-1" points="296.29 0 296.29 30.59 273.53 10.14 273.53 30.59 268.95 30.59 268.95 0 291.71 20.42 291.71 0 296.29 0"/>
    <path class="cls-1" d="M252.56,5.84L249.94,0l-2.62,5.83-12.18,24.76h5.22l3.55-7.87h12.13l3.46,7.87h5.25l-12.18-24.75ZM245.8,18.57l.23-.51,3.91-8.69.03.05.13.28,3.08,6.83.92,2.04h-8.29Z"/>
  </g>
</svg>